<?xml version="1.0" encoding="UTF-8"?>
<!DOCTYPE svg PUBLIC "-//W3C//DTD SVG 1.1//EN" "http://www.w3.org/Graphics/SVG/1.1/DTD/svg11.dtd">
<!-- Creator: CorelDRAW 2019 (64-Bit) -->
<svg xmlns="http://www.w3.org/2000/svg" xml:space="preserve" width="136px" height="136px" version="1.1" style="shape-rendering:geometricPrecision; text-rendering:geometricPrecision; image-rendering:optimizeQuality; fill-rule:evenodd; clip-rule:evenodd"
viewBox="0 0 162.104 161.705"
 xmlns:xlink="http://www.w3.org/1999/xlink"
 xmlns:xodm="http://www.corel.com/coreldraw/odm/2003">
 <defs>
  <style type="text/css">
   <![CDATA[
    .fil0 {fill:#231F20}
   ]]>
  </style>
 </defs>
 <g id="Слой_x0020_1">
  <metadata id="CorelCorpID_0Corel-Layer"/>
  <g id="_2534924216688">
   <path class="fil0" d="M74.358 161.705l0.015 -82.273 -74.2 -31.264c-0.105,15.812 -0.15,31.477 -0.072,47.104 0.195,39.258 -5.226,28.209 42.084,51.564 5.209,2.572 10.359,4.713 15.716,7.391 3.483,1.741 13.251,6.727 16.457,7.478z"/>
   <path class="fil0" d="M87.959 79.302l-0.083 82.387c3.465,-0.894 61.017,-28.303 64.245,-29.956 5.319,-2.723 9.316,-5.896 9.955,-13.035l0.028 -70.325 -74.145 30.929z"/>
   <path class="fil0" d="M4.873 35.164c0.795,0.745 75.017,31.998 76.246,32.015 1.048,0.013 34.161,-14.07 38.198,-15.761 4.815,-2.018 36.771,-14.96 38.101,-16.254 -2.158,-2.946 -13.584,-7.67 -17.915,-9.622 -6.326,-2.854 -12.48,-6.017 -19.075,-8.986 -7.477,-3.366 -32.99,-16.583 -39.303,-16.556 -5.947,0.026 -14.961,5.337 -20.198,7.679l-37.885 17.717c-4.797,2.305 -15.867,6.473 -18.169,9.768z"/>
  </g>
 </g>
</svg>
