<?xml version="1.0" encoding="UTF-8"?>
<!DOCTYPE svg PUBLIC "-//W3C//DTD SVG 1.1//EN" "http://www.w3.org/Graphics/SVG/1.1/DTD/svg11.dtd">
<!-- Creator: CorelDRAW 2019 (64-Bit) -->
<svg xmlns="http://www.w3.org/2000/svg" xml:space="preserve" width="136px" height="137px" version="1.1" style="shape-rendering:geometricPrecision; text-rendering:geometricPrecision; image-rendering:optimizeQuality; fill-rule:evenodd; clip-rule:evenodd"
viewBox="0 0 12.484 12.582"
 xmlns:xlink="http://www.w3.org/1999/xlink"
 xmlns:xodm="http://www.corel.com/coreldraw/odm/2003">
 <defs>
  <style type="text/css">
   <![CDATA[
    .str0 {stroke:black;stroke-width:0.921;stroke-miterlimit:22.9256}
    .fil1 {fill:none}
    .fil0 {fill:black}
   ]]>
  </style>
 </defs>
 <g id="Слой_x0020_1">
  <metadata id="CorelCorpID_0Corel-Layer"/>
  <path class="fil0" d="M11.366 9.101c-0.404,0.526 -0.234,0.509 -0.978,1.287 -0.174,0.183 -0.98,0.901 -1.261,0.944l-0.808 0.407c-0.149,0.049 -0.231,0.111 -0.401,0.104 -0.109,0.102 -0.816,0.254 -1.007,0.222l-0.139 -2.612c0.54,-0.061 0.816,-0.289 1.136,-0.399 0.078,-0.074 0.179,-0.128 0.268,-0.195 0.098,-0.073 0.181,-0.162 0.268,-0.196 0.056,-0.113 0.175,-0.211 0.252,-0.253 0.021,-0.107 0.118,-0.188 0.183,-0.283 0.038,-0.055 0.127,-0.209 0.168,-0.238l0.193 -0.458c0.228,0.041 2.386,0.794 2.491,0.875l-0.365 0.795zm-6.945 -0.425c-0.102,-0.038 -0.235,-0.156 -0.31,-0.222 -0.077,-0.069 -0.162,-0.191 -0.22,-0.291 -0.147,-0.044 -1.21,-1.561 -0.326,-3.299 0.09,-0.176 0.178,-0.282 0.287,-0.431 0.163,-0.224 0.156,-0.159 0.344,-0.373 0.416,-0.47 1.398,-0.826 2.121,-0.796 0.893,0.037 1.553,0.422 2.032,0.85 0.2,0.178 0.455,0.548 0.612,0.858 0.878,1.725 -0.182,4.005 -2.315,4.307 -0.695,0.099 -1.827,-0.156 -2.201,-0.569l-0.024 -0.034zm-3.687 -0.443l-0.031 -0.104c-0.235,-0.354 -0.314,-1.672 -0.301,-2.155 0.022,-0.831 0.254,-1.343 0.474,-2.027 0.466,0.137 2.122,0.847 2.448,0.925 -0.061,0.258 -0.177,0.448 -0.236,0.749 -0.059,0.298 -0.081,0.57 -0.06,0.903 0.051,0.798 0.293,1.005 0.442,1.434l-2.088 1.555c-0.17,-0.162 -0.564,-0.988 -0.648,-1.28zm7.707 -4.305c-0.084,-0.049 -0.111,-0.055 -0.162,-0.16 -0.067,-0.021 -0.009,0.003 -0.069,-0.03 -0.011,-0.006 -0.049,-0.03 -0.062,-0.039 -0.709,-0.481 -1.283,-0.658 -2.199,-0.611 -0.012,0.002 -0.075,0.01 -0.107,0.007 -0.079,-0.009 -0.034,0 -0.084,-0.025l-0.161 -0.786 -0.374 -1.74c1.574,-0.265 3.072,0.091 4.322,0.939 0.204,0.139 0.319,0.234 0.5,0.388 0.114,0.097 0.376,0.306 0.448,0.447l-1.875 1.8 -0.177 -0.19zm-4.538 -3.212c-0.036,0.031 -0.719,0.377 -0.799,0.403 -0.008,0.013 -0.694,0.504 -0.782,0.589 -0.325,0.316 -0.357,0.296 -0.704,0.696 -0.397,0.457 -0.778,1.104 -1.032,1.77 -0.286,0.753 -0.402,1.515 -0.373,2.403 0.023,0.692 0.13,1.121 0.343,1.741 0.058,0.17 0.167,0.342 0.172,0.506 0.107,0.08 0.218,0.363 0.298,0.496 0.216,0.362 0.352,0.562 0.627,0.874 0.065,0.073 0.101,0.14 0.166,0.212 0.063,0.07 0.111,0.093 0.196,0.179 0.829,0.837 1.618,1.092 1.762,1.222 0.167,0.042 0.316,0.12 0.496,0.179 0.593,0.194 0.937,0.266 1.599,0.316 2.716,0.203 5.213,-1.536 6.1,-4.125 0.49,-1.429 0.36,-2.928 -0.206,-4.302 -0.164,-0.398 -0.443,-0.866 -0.704,-1.21 -0.088,-0.115 -0.23,-0.227 -0.257,-0.342l-0.452 -0.453c-0.141,-0.121 -0.38,-0.279 -0.481,-0.425l-0.584 -0.353c-1.117,-0.691 -2.57,-0.95 -3.879,-0.774 -0.811,0.109 -1.101,0.315 -1.506,0.398z"/>
  <ellipse class="fil1 str0" cx="6.242" cy="6.291" rx="3.14" ry="3.069"/>
  <ellipse class="fil1 str0" cx="6.242" cy="6.291" rx="5.781" ry="5.831"/>
 </g>
</svg>
