<?xml version="1.0" encoding="UTF-8"?>
<!DOCTYPE svg PUBLIC "-//W3C//DTD SVG 1.1//EN" "http://www.w3.org/Graphics/SVG/1.1/DTD/svg11.dtd">
<!-- Creator: CorelDRAW 2019 (64-Bit) -->
<svg xmlns="http://www.w3.org/2000/svg" xml:space="preserve" width="145px" height="137px" version="1.1" style="shape-rendering:geometricPrecision; text-rendering:geometricPrecision; image-rendering:optimizeQuality; fill-rule:evenodd; clip-rule:evenodd"
viewBox="0 0 85.292 80.752"
 xmlns:xlink="http://www.w3.org/1999/xlink"
 xmlns:xodm="http://www.corel.com/coreldraw/odm/2003">
 <defs>
  <style type="text/css">
   <![CDATA[
    .fil0 {fill:#252525}
   ]]>
  </style>
 </defs>
 <g id="Слой_x0020_1">
  <metadata id="CorelCorpID_0Corel-Layer"/>
  <path class="fil0" d="M46.301 49.554l15.905 8.011 -0.091 18.804 -15.897 -7.858 0.083 -18.957zm-42.63 0.001l15.905 8.01 -0.091 18.804 -15.898 -7.858 0.084 -18.956zm45.203 -2.855c1.217,-0.833 14.619,-7.475 15.2,-7.442 0.374,0.021 14.007,6.764 14.999,7.442 -0.583,0.687 -6.852,3.622 -7.618,3.997 -1.194,0.584 -6.797,3.648 -7.564,3.598 -0.046,-0.003 -14.297,-6.747 -15.017,-7.595zm-42.63 0c1.254,-0.849 14.6,-7.476 15.2,-7.442 0.385,0.022 13.98,6.752 15,7.442 -0.469,0.556 -3.138,1.787 -3.821,2.112 -14.266,6.78 -8.495,6.842 -18.934,1.801l-7.445 -3.913zm18.699 -32.691l15.878 7.887 0.047 1.034 0.006 16.794 -0.058 1.136 -15.927 -7.947 0.054 -18.904zm2.55 -2.752c0.828,-0.656 14.721,-7.595 15.166,-7.595 0.444,0 14.338,6.939 15.165,7.595 -1.397,0.808 -14.522,7.486 -15.165,7.486 -0.644,0 -13.768,-6.678 -15.166,-7.486zm-4.976 24.382c-2.576,-0.288 -3.855,0.764 -5.732,1.727l-10.158 5.077c-1.361,0.662 -4.017,1.812 -5.149,2.612 -1.808,1.277 -1.449,3.355 -1.448,6.037l-0.001 15.244c-0.011,3.258 -0.071,4.16 2.301,5.448 4.914,2.667 10.209,4.995 15.171,7.566 1.812,0.939 3.47,2.034 5.803,0.955l17.706 -8.901c1.241,-0.829 0.833,-1.163 1.692,-2.27 0.853,2.361 1.742,2.408 3.993,3.492 5.026,2.421 10.224,5.33 15.318,7.679 2.914,1.344 6.775,-1.467 10.813,-3.436l10.327 -5.178c2.241,-1.247 2.146,-2.288 2.136,-5.355l-0.001 -15.244c0.002,-6.361 0.096,-5.306 -6.597,-8.65 -1.771,-0.885 -3.39,-1.728 -5.149,-2.6 -3.408,-1.69 -8.237,-4.771 -10.923,-4.11 1.702,-2.345 1.356,-2.155 1.354,-5.826l0 -14.468c0.001,-2.589 0.359,-4.741 -1.462,-5.906 -1.701,-1.088 -18.503,-9.466 -19.619,-9.531 -1.696,-0.1 -16.97,7.902 -19.586,9.26 -2.142,1.113 -1.97,2.421 -1.962,5.402l0.001 14.468c0,4.369 -0.426,3.546 1.172,6.508z"/>
 </g>
</svg>
