<?xml version="1.0" encoding="UTF-8"?>
<!DOCTYPE svg PUBLIC "-//W3C//DTD SVG 1.1//EN" "http://www.w3.org/Graphics/SVG/1.1/DTD/svg11.dtd">
<!-- Creator: CorelDRAW 2019 (64-Bit) -->
<svg xmlns="http://www.w3.org/2000/svg" xml:space="preserve" width="75px" height="54px" version="1.1" style="shape-rendering:geometricPrecision; text-rendering:geometricPrecision; image-rendering:optimizeQuality; fill-rule:evenodd; clip-rule:evenodd"
viewBox="0 0 17.796 12.749"
 xmlns:xlink="http://www.w3.org/1999/xlink"
 xmlns:xodm="http://www.corel.com/coreldraw/odm/2003">
 <defs>
  <style type="text/css">
   <![CDATA[
    .fil0 {fill:black}
   ]]>
  </style>
 </defs>
 <g id="Слой_x0020_1">
  <metadata id="CorelCorpID_0Corel-Layer"/>
  <g id="_1771356304096">
   <path class="fil0" d="M0.405 0.341c0.225,0.296 1.137,0.979 1.527,1.334l4.774 4.106c0.541,0.417 1.808,1.625 2.175,1.838l4.252 -3.621c0.352,-0.314 4.07,-3.437 4.228,-3.661 -0.658,-0.432 -0.938,-0.319 -1.85,-0.327l-13.196 0c-0.927,0.006 -1.242,-0.112 -1.91,0.331z"/>
   <path class="fil0" d="M0.406 12.373c0.309,0.323 0.577,0.364 1.136,0.364l13.905 0.006c0.865,-0.006 1.393,0.099 1.905,-0.366 -0.26,-0.212 -0.501,-0.442 -0.782,-0.686 -0.242,-0.209 -0.552,-0.445 -0.769,-0.649 -0.272,-0.254 -0.512,-0.451 -0.801,-0.68l-3.847 -3.346c-0.295,0.08 -0.883,0.701 -1.152,0.929l-1.12 0.948c-0.38,-0.211 -1.912,-1.775 -2.273,-1.878 -0.414,0.469 -1.034,0.902 -1.532,1.348 -0.506,0.453 -1.036,0.914 -1.564,1.335 -0.899,0.717 -2.181,1.926 -3.106,2.675z"/>
   <path class="fil0" d="M0.001 11.657c0.167,-0.091 5.973,-5.009 6.109,-5.221l-1.93 -1.667c-1.239,-1.057 -3.052,-2.7 -4.18,-3.596l0.001 10.484z"/>
   <path class="fil0" d="M11.649 6.434c0.133,0.206 1.878,1.66 2.277,1.978l3.841 3.246c0.013,-3.225 0.066,-7.341 -0.015,-10.486l-5.332 4.622c-0.171,0.159 -0.586,0.529 -0.771,0.64z"/>
  </g>
 </g>
</svg>
