<?xml version="1.0" encoding="UTF-8"?>
<!DOCTYPE svg PUBLIC "-//W3C//DTD SVG 1.1//EN" "http://www.w3.org/Graphics/SVG/1.1/DTD/svg11.dtd">
<!-- Creator: CorelDRAW 2019 (64-Bit) -->
<svg xmlns="http://www.w3.org/2000/svg" xml:space="preserve" width="135px" height="135px" version="1.1" style="shape-rendering:geometricPrecision; text-rendering:geometricPrecision; image-rendering:optimizeQuality; fill-rule:evenodd; clip-rule:evenodd"
viewBox="0 0 8.041 8.028"
 xmlns:xlink="http://www.w3.org/1999/xlink"
 xmlns:xodm="http://www.corel.com/coreldraw/odm/2003">
 <defs>
  <style type="text/css">
   <![CDATA[
    .fil0 {fill:black}
   ]]>
  </style>
 </defs>
 <g id="Слой_x0020_1">
  <metadata id="CorelCorpID_0Corel-Layer"/>
  <path class="fil0" d="M4.315 5.022c0.609,-0.275 0.052,-0.573 1.389,-0.056 0.691,0.267 0.186,0.898 -0.197,1.08 -1.064,0.506 -2.143,-0.677 -2.516,-1.11 -0.466,-0.539 -1.394,-1.673 -0.781,-2.651 0.12,-0.191 0.283,-0.36 0.57,-0.415 0.363,-0.07 0.448,0.06 0.529,0.365 0.306,1.158 0.183,0.871 -0.233,1.326 0.067,0.48 0.834,1.297 1.239,1.461zm-4.279 -0.528c0.276,2.053 2.081,3.785 4.473,3.504 2.075,-0.243 3.767,-2.124 3.505,-4.482 -0.223,-2.004 -2.131,-3.762 -4.439,-3.488 -2.044,0.243 -3.855,2.109 -3.539,4.466z"/>
 </g>
</svg>
