<?xml version="1.0" encoding="UTF-8"?>
<!DOCTYPE svg PUBLIC "-//W3C//DTD SVG 1.1//EN" "http://www.w3.org/Graphics/SVG/1.1/DTD/svg11.dtd">
<!-- Creator: CorelDRAW 2019 (64-Bit) -->
<svg xmlns="http://www.w3.org/2000/svg" xml:space="preserve" width="137px" height="136px" version="1.1" style="shape-rendering:geometricPrecision; text-rendering:geometricPrecision; image-rendering:optimizeQuality; fill-rule:evenodd; clip-rule:evenodd"
viewBox="0 0 37.628 37.437"
 xmlns:xlink="http://www.w3.org/1999/xlink"
 xmlns:xodm="http://www.corel.com/coreldraw/odm/2003">
 <defs>
  <style type="text/css">
   <![CDATA[
    .fil0 {fill:black}
   ]]>
  </style>
 </defs>
 <g id="Слой_x0020_1">
  <metadata id="CorelCorpID_0Corel-Layer"/>
  <path class="fil0" d="M20.502 33.025l-0.129 -16.638 14.44 -5.376 0.024 16.878c-3.126,1.152 -12.521,5.14 -14.335,5.136zm-16.923 -21.659c1.395,0.097 10.366,4.21 12.327,5.007l-0.088 16.736c-1.157,-0.162 -11.937,-4.728 -13.071,-5.445l0.282 -16.665 0.55 0.367zm-0.198 -5.641c-2.247,1.67 -3.206,0.175 -3.299,4.352l-0.081 17.005c-0.019,4.114 0.283,2.987 2.544,4.269 1.178,0.436 10.551,4.33 11.337,4.779 1.531,0.443 2.996,1.405 4.533,1.299 1.293,-0.089 2.926,-0.913 4.533,-1.494 0.984,-0.465 11.346,-4.449 13.429,-5.3l1.064 -1.063c0.254,-1.204 0.186,-13.224 0.154,-19.495l-0.314 -2.775 -0.456 -0.77c-0.796,-0.429 -17.168,-6.62 -18.339,-6.531 -3.353,0.255 -3.748,0.876 -15.105,5.724z"/>
 </g>
</svg>
