<?xml version="1.0" encoding="UTF-8"?>
<!DOCTYPE svg PUBLIC "-//W3C//DTD SVG 1.1//EN" "http://www.w3.org/Graphics/SVG/1.1/DTD/svg11.dtd">
<!-- Creator: CorelDRAW 2019 (64-Bit) -->
<svg xmlns="http://www.w3.org/2000/svg" xml:space="preserve" width="137px" height="136px" version="1.1" style="shape-rendering:geometricPrecision; text-rendering:geometricPrecision; image-rendering:optimizeQuality; fill-rule:evenodd; clip-rule:evenodd"
viewBox="0 0 6.188 6.174"
 xmlns:xlink="http://www.w3.org/1999/xlink"
 xmlns:xodm="http://www.corel.com/coreldraw/odm/2003">
 <defs>
  <style type="text/css">
   <![CDATA[
    .fil0 {fill:black}
   ]]>
  </style>
 </defs>
 <g id="Слой_x0020_1">
  <metadata id="CorelCorpID_0Corel-Layer"/>
  <path class="fil0" d="M3.923 3.563c0.089,-0.294 0.023,-0.54 0.062,-0.84 0.143,-0.043 0.23,-0.029 0.379,-0.03 0.158,-0.002 0.252,-0.037 0.317,0.093 0.068,0.038 0.024,-0.067 0.059,0.095l0.007 0.547c0,0.229 0.018,0.53 -0.028,0.721 -0.134,0.062 -0.13,0.043 -0.309,0.073l-0.012 0.36c-0.247,0.008 -0.408,-0.282 -0.605,-0.353 -0.248,-0.089 -0.601,0.046 -0.881,-0.076l-0.005 -0.428c0.404,-0.046 0.787,0.096 1.016,-0.162zm-2.046 0.036c-0.461,-0.087 -0.433,-0.022 -0.432,-0.728 0.002,-1.394 -0.167,-1.224 1.088,-1.224 1.491,0 1.32,-0.165 1.319,0.985 0,0.335 0.097,0.875 -0.213,0.94 -0.346,0.073 -0.801,-0.095 -1.061,0.1 -0.16,0.119 -0.489,0.429 -0.69,0.437l-0.011 -0.51zm-1.85 -0.132c0.207,1.563 1.6,2.895 3.432,2.686 1.555,-0.179 2.916,-1.61 2.708,-3.412 -0.181,-1.57 -1.591,-2.927 -3.431,-2.72 -1.558,0.176 -2.95,1.614 -2.709,3.446z"/>
 </g>
</svg>
