<?xml version="1.0" encoding="UTF-8"?>
<!DOCTYPE svg PUBLIC "-//W3C//DTD SVG 1.1//EN" "http://www.w3.org/Graphics/SVG/1.1/DTD/svg11.dtd">
<!-- Creator: CorelDRAW 2019 (64-Bit) -->
<svg xmlns="http://www.w3.org/2000/svg" xml:space="preserve" width="136px" height="136px" version="1.1" style="shape-rendering:geometricPrecision; text-rendering:geometricPrecision; image-rendering:optimizeQuality; fill-rule:evenodd; clip-rule:evenodd"
viewBox="0 0 9.933 9.938"
 xmlns:xlink="http://www.w3.org/1999/xlink"
 xmlns:xodm="http://www.corel.com/coreldraw/odm/2003">
 <defs>
  <style type="text/css">
   <![CDATA[
    .fil0 {fill:black}
   ]]>
  </style>
 </defs>
 <g id="Слой_x0020_1">
  <metadata id="CorelCorpID_0Corel-Layer"/>
  <path class="fil0" d="M5.788 4.645l-0.004 0.091 -0.256 1.028 -0.053 0.22c-0.017,0.101 -0.036,0.294 -0.102,0.36 0.009,0.143 -0.069,0.317 -0.094,0.47 -0.033,0.108 -0.028,0.199 -0.055,0.305 0.161,-0.016 0.463,-0.297 0.596,-0.37l-0.004 0.006c0.023,-0.04 0.004,-0.013 0.031,-0.044l0.148 -0.12 0.233 0.484c-0.174,0.24 -1.047,0.981 -1.445,1.094 -0.047,0.045 -0.143,0.077 -0.231,0.095 -0.087,0.066 -0.379,0.101 -0.464,-0.026 -0.152,-0.052 -0.204,-0.294 -0.197,-0.517 0.01,-0.21 0.092,-0.959 0.194,-1.074l0.022 -0.144c0.025,-0.168 0.076,-0.372 0.12,-0.541 0.036,-0.133 0.068,-0.452 0.141,-0.538l0.025 -0.161 0.122 -0.586c-0.186,0.047 -0.306,0.225 -0.473,0.283l-0.057 0.061c-0.024,0.019 -0.037,0.025 -0.064,0.045 -0.059,0.043 -0.072,0.065 -0.136,0.088l-0.184 -0.505c0.026,-0.039 0.027,-0.04 0.069,-0.073 0.062,-0.049 0.014,-0.028 0.078,-0.042 0.003,-0.005 0.008,-0.019 0.01,-0.015 0.002,0.003 0.008,-0.012 0.01,-0.015l0.086 -0.093c0.212,-0.174 0.729,-0.582 0.941,-0.656 0.049,-0.061 0.372,-0.227 0.478,-0.229 0.025,-0.024 0.005,-0.012 0.042,-0.032l0.2 -0.049c0.113,-0.008 0.187,0.011 0.234,0.085 0.026,0.012 0.022,-0.046 0.042,0.048 0.187,0.169 0.076,0.983 -0.003,1.067zm-0.251 -1.67l-0.265 0.002c-0.267,-0.069 -0.427,-0.23 -0.455,-0.528l-0.011 -0.173c0.06,-0.405 0.315,-0.703 0.737,-0.729l0.234 0.026c0.653,0.143 0.538,1.275 -0.24,1.402zm-2.247 -2.692c-0.078,0.04 -0.385,0.166 -0.447,0.168 -0.048,0.074 -0.188,0.119 -0.262,0.156 -0.104,0.053 -0.196,0.126 -0.291,0.155l-0.039 0.023 -0.227 0.16c-0.011,0.037 0,0.019 -0.089,0.083 -0.048,0.035 -0.057,0.042 -0.111,0.087 -0.091,0.077 -0.137,0.147 -0.216,0.167 -0.021,0.038 0.002,0.025 -0.056,0.05l-0.085 0.103c-0.042,0.042 -0.055,0.065 -0.103,0.084l-0.073 0.076c-0.016,0.062 -0.025,0.061 -0.076,0.111 -0.051,0.049 -0.049,0.049 -0.091,0.105 -0.055,0.07 -0.116,0.145 -0.162,0.2 -0.047,0.076 -0.076,0.144 -0.151,0.191 -0.008,0.062 0.044,0.011 -0.032,0.061 -0.028,0.089 -0.248,0.492 -0.315,0.551 -0.003,0.05 -0.136,0.382 -0.165,0.421l-0.199 0.697c-0.021,0.053 -0.008,0.024 -0.025,0.048l0.014 -0.003 -0.043 0.287 -0.032 0.215c-0.014,0.398 -0.03,0.699 0.019,1.095 0.045,0.367 0.132,0.625 0.206,0.956 0.034,0.044 0.056,0.134 0.055,0.189 0.048,0.051 0.233,0.497 0.247,0.545l0.033 0.073c0.022,0.018 0.015,0.011 0.036,0.037 0.011,0.013 0.018,0.022 0.028,0.039 0.037,0.057 0.035,0.059 0.055,0.12 0.042,0.035 0.093,0.114 0.102,0.169 0.078,0.067 0.288,0.391 0.443,0.552 0.464,0.487 0.365,0.368 0.809,0.74l0.025 0.022c0.004,0.003 0.01,0.009 0.013,0.012 0.003,0.003 0.009,0.008 0.012,0.012 0.064,0.026 0.152,0.095 0.223,0.14 0.076,0.048 0.151,0.084 0.229,0.139 0.352,0.159 0.452,0.239 0.855,0.369 0.072,0.023 0.076,0.014 0.121,0.058l0.017 -0.01c0.467,0.115 0.838,0.187 1.362,0.201 0.225,0.006 0.504,-0.013 0.728,-0.042 0.231,-0.03 0.453,-0.096 0.668,-0.133l0.475 -0.149 0.256 -0.127 0.461 -0.23c0.004,-0.004 0.011,-0.015 0.013,-0.011l0.052 -0.042c0.205,-0.146 0.322,-0.197 0.576,-0.405 0.219,-0.178 0.597,-0.565 0.769,-0.802l0.374 -0.529c0.014,-0.077 0.071,-0.17 0.117,-0.235l0.109 -0.213c0.003,-0.003 0.008,-0.008 0.012,-0.012 -0.004,-0.071 0.054,-0.22 0.112,-0.278 0.002,-0.089 0.078,-0.325 0.128,-0.418l0.087 -0.314c-0.024,-0.204 0.104,-0.442 0.069,-0.658 0.066,-0.455 -0.022,-0.919 -0.069,-1.34 -0.025,-0.073 -0.031,-0.071 -0.021,-0.148 -0.037,-0.05 -0.174,-0.551 -0.183,-0.594 -0.046,-0.054 -0.075,-0.154 -0.077,-0.217 -0.021,-0.02 -0.017,-0.008 -0.035,-0.042 -0.025,-0.045 0.001,0.017 -0.021,-0.069 -0.005,-0.003 -0.284,-0.53 -0.322,-0.59 -0.061,-0.097 -0.122,-0.185 -0.195,-0.285 -0.057,-0.079 -0.164,-0.195 -0.184,-0.269 -0.101,-0.038 -0.092,-0.085 -0.156,-0.155 -0.073,-0.079 -0.095,-0.065 -0.151,-0.164l-0.166 -0.171c-0.054,-0.029 -0.037,-0.007 -0.06,-0.058 -0.044,-0.015 0.012,0.016 -0.056,-0.026 -0.024,-0.015 -0.019,-0.014 -0.047,-0.038l-0.63 -0.471c-0.069,-0.019 -0.509,-0.241 -0.555,-0.292 -0.078,-0.006 -0.272,-0.094 -0.369,-0.129 -0.132,-0.047 -0.247,-0.085 -0.383,-0.118 -0.232,-0.058 -0.605,-0.148 -0.849,-0.14 -0.783,-0.08 -1.415,0.055 -2.091,0.26z"/>
 </g>
</svg>
