<?xml version="1.0" encoding="UTF-8"?>
<!DOCTYPE svg PUBLIC "-//W3C//DTD SVG 1.1//EN" "http://www.w3.org/Graphics/SVG/1.1/DTD/svg11.dtd">
<!-- Creator: CorelDRAW 2019 (64-Bit) -->
<svg xmlns="http://www.w3.org/2000/svg" xml:space="preserve" width="200px" height="200px" version="1.1" style="shape-rendering:geometricPrecision; text-rendering:geometricPrecision; image-rendering:optimizeQuality; fill-rule:evenodd; clip-rule:evenodd"
viewBox="0 0 19.766 19.766"
 xmlns:xlink="http://www.w3.org/1999/xlink"
 xmlns:xodm="http://www.corel.com/coreldraw/odm/2003">
 <defs>
  <style type="text/css">
   <![CDATA[
    .fil0 {fill:black}
   ]]>
  </style>
 </defs>
 <g id="Слой_x0020_1">
  <metadata id="CorelCorpID_0Corel-Layer"/>
  <path class="fil0" d="M9.16 12.365c-1.497,-0.679 -0.129,-1.411 -3.416,-0.139 -1.697,0.657 -0.455,2.212 0.486,2.66 2.614,1.245 5.267,-1.668 6.184,-2.732 1.145,-1.329 3.426,-4.12 1.919,-6.527 -0.295,-0.471 -0.695,-0.887 -1.399,-1.023 -0.893,-0.173 -1.104,0.148 -1.302,0.899 -0.752,2.852 -0.449,2.145 0.573,3.265 -0.165,1.181 -2.051,3.193 -3.045,3.597zm10.517 -1.3c-0.677,5.055 -5.114,9.319 -10.994,8.627 -5.1,-0.6 -9.261,-5.23 -8.617,-11.035 0.548,-4.935 5.239,-9.263 10.912,-8.587 5.025,0.598 9.477,5.191 8.699,10.995z"/>
 </g>
</svg>
