<?xml version="1.0" encoding="UTF-8"?>
<!DOCTYPE svg PUBLIC "-//W3C//DTD SVG 1.1//EN" "http://www.w3.org/Graphics/SVG/1.1/DTD/svg11.dtd">
<!-- Creator: CorelDRAW 2019 (64-Bit) -->
<svg xmlns="http://www.w3.org/2000/svg" xml:space="preserve" width="137px" height="137px" version="1.1" style="shape-rendering:geometricPrecision; text-rendering:geometricPrecision; image-rendering:optimizeQuality; fill-rule:evenodd; clip-rule:evenodd"
viewBox="0 0 7.002 6.995"
 xmlns:xlink="http://www.w3.org/1999/xlink"
 xmlns:xodm="http://www.corel.com/coreldraw/odm/2003">
 <defs>
  <style type="text/css">
   <![CDATA[
    .fil0 {fill:black}
   ]]>
  </style>
 </defs>
 <g id="Слой_x0020_1">
  <metadata id="CorelCorpID_0Corel-Layer"/>
  <g id="_2534649527904">
   <path class="fil0" d="M3.507 5.486c-0.264,-0.101 -1.276,-1.782 -1.368,-2.039 -0.368,-1.027 0.44,-1.942 1.368,-1.939 0.937,0.003 1.688,0.919 1.37,1.894 -0.094,0.288 -1.114,1.953 -1.37,2.084zm-0.385 -5.456c-1.811,0.245 -3.345,1.756 -3.095,3.901 0.206,1.775 1.871,3.299 3.931,3.034 1.783,-0.23 3.27,-1.877 3.015,-3.935 -0.212,-1.706 -1.864,-3.268 -3.851,-3z"/>
   <path class="fil0" d="M3.301 2.401c-0.823,0.364 -0.269,1.387 0.425,1.115 0.728,-0.285 0.288,-1.431 -0.425,-1.115z"/>
  </g>
 </g>
</svg>
