<?xml version="1.0" encoding="UTF-8"?>
<!DOCTYPE svg PUBLIC "-//W3C//DTD SVG 1.1//EN" "http://www.w3.org/Graphics/SVG/1.1/DTD/svg11.dtd">
<!-- Creator: CorelDRAW 2019 (64-Bit) -->
<svg xmlns="http://www.w3.org/2000/svg" xml:space="preserve" width="136px" height="136px" version="1.1" style="shape-rendering:geometricPrecision; text-rendering:geometricPrecision; image-rendering:optimizeQuality; fill-rule:evenodd; clip-rule:evenodd"
viewBox="0 0 5.523 5.511"
 xmlns:xlink="http://www.w3.org/1999/xlink"
 xmlns:xodm="http://www.corel.com/coreldraw/odm/2003">
 <defs>
  <style type="text/css">
   <![CDATA[
    .fil0 {fill:black}
   ]]>
  </style>
 </defs>
 <g id="Слой_x0020_1">
  <metadata id="CorelCorpID_0Corel-Layer"/>
  <path class="fil0" d="M5.504 3.017c0.187,-1.579 -1.063,-2.872 -2.474,-3.004 -1.608,-0.151 -2.883,1.052 -3.017,2.479 -0.152,1.62 1.072,2.869 2.504,3.006 1.605,0.154 2.818,-1.048 2.987,-2.481zm-1.907 1.686c0.033,-0.077 0.307,-0.538 0.379,-0.612l0.273 0.15c-0.074,0.172 -0.455,0.409 -0.652,0.462zm-1.662 -0.001c-0.159,-0.036 -0.236,-0.098 -0.362,-0.184 -0.158,-0.107 -0.222,-0.108 -0.298,-0.292l0.302 -0.129 0.358 0.605zm0.941 -0.81c0.278,-0.008 0.621,0.034 0.839,0.125 -0.073,0.359 -0.446,0.786 -0.843,0.846l0.004 -0.971zm-1.063 0.116c0.282,-0.071 0.527,-0.135 0.846,-0.11l-0.001 0.959c-0.401,-0.039 -0.777,-0.491 -0.845,-0.849zm-0.245 -1.14l1.08 0.01c0.011,0.14 0.013,0.281 0.013,0.422 0,0.049 0.001,0.141 -0.005,0.186l-0.041 0.163 -0.92 0.139c-0.057,-0.293 -0.138,-0.573 -0.127,-0.92zm2.618 0.009l0.691 -0.012c0.012,0.444 -0.213,0.958 -0.441,1.201l-0.387 -0.202 0.137 -0.987zm-1.266 0.773c-0.083,-0.162 -0.051,-0.595 -0.038,-0.783l1.08 0.015c0.01,0.354 -0.072,0.589 -0.126,0.906l-0.916 -0.138zm-1.824 0.407c-0.238,-0.253 -0.459,-0.709 -0.44,-1.195l0.672 0.04 0.168 0.987 -0.4 0.168zm2.739 -2.331c0.052,0.323 0.137,0.554 0.111,0.925l-1.074 -0.007 0.024 -0.774 0.939 -0.144zm-2.267 0.915c-0.011,-0.394 0.077,-0.589 0.127,-0.913l0.919 0.143c0.058,0.113 0.048,0.256 0.047,0.389 -0.001,0.129 -0.002,0.25 -0.011,0.388l-1.082 -0.007zm-0.913 0.01c-0.014,-0.409 0.183,-0.947 0.446,-1.201l0.381 0.199 -0.147 0.998 -0.68 0.004zm3.786 -1.186c0.227,0.23 0.444,0.745 0.436,1.186l-0.247 0 -0.419 -0.006 -0.17 -1.012 0.4 -0.168zm-1.563 -0.811c0.395,0.05 0.751,0.497 0.843,0.847 -0.269,0.093 -0.544,0.132 -0.85,0.122l0.007 -0.969zm-1.072 0.856c0.091,-0.359 0.452,-0.819 0.851,-0.85l0 0.956c-0.326,0.03 -0.559,-0.038 -0.851,-0.106zm2.164 -0.097c-0.08,-0.074 -0.334,-0.507 -0.376,-0.6 0.198,0.059 0.574,0.288 0.661,0.474l-0.285 0.126zm-2.689 -0.141c0.086,-0.189 0.451,-0.404 0.659,-0.461l-0.379 0.614 -0.28 -0.153zm-0.837 1.838c0.188,1.181 1.27,2.162 2.675,1.965 1.153,-0.162 2.162,-1.27 1.965,-2.665 -0.161,-1.147 -1.279,-2.18 -2.655,-1.972 -1.168,0.177 -2.208,1.264 -1.985,2.672z"/>
 </g>
</svg>
