<?xml version="1.0" encoding="UTF-8"?>
<!DOCTYPE svg PUBLIC "-//W3C//DTD SVG 1.1//EN" "http://www.w3.org/Graphics/SVG/1.1/DTD/svg11.dtd">
<!-- Creator: CorelDRAW 2019 (64-Bit) -->
<svg xmlns="http://www.w3.org/2000/svg" xml:space="preserve" width="216px" height="136px" version="1.1" style="shape-rendering:geometricPrecision; text-rendering:geometricPrecision; image-rendering:optimizeQuality; fill-rule:evenodd; clip-rule:evenodd"
viewBox="0 0 65.344 41.083"
 xmlns:xlink="http://www.w3.org/1999/xlink"
 xmlns:xodm="http://www.corel.com/coreldraw/odm/2003">
 <defs>
  <style type="text/css">
   <![CDATA[
    .fil0 {fill:black}
   ]]>
  </style>
 </defs>
 <g id="Слой_x0020_1">
  <metadata id="CorelCorpID_0Corel-Layer"/>
  <path class="fil0" d="M15.095 26.306c0.16,-0.193 0.343,-0.463 0.548,-0.764 1.13,-1.663 2.859,-4.205 5.73,-2.302 0.686,0.456 0.894,0.827 1.136,1.262 0.093,0.166 0.192,0.344 0.332,0.54 0.093,-0.06 0.176,-0.124 0.258,-0.186 0.324,-0.246 0.638,-0.484 1.358,-0.584 0.255,-0.035 0.512,-0.044 0.765,-0.027 0.775,0.054 1.527,0.352 2.12,0.89 0.591,0.536 1.023,1.307 1.161,2.304 0.034,0.247 0.05,0.506 0.046,0.779 0.763,0.023 1.382,0.148 1.9,0.381 0.605,0.272 1.066,0.684 1.448,1.246 1.02,1.497 0.6,2.401 0.221,3.215 -0.09,0.195 -0.178,0.384 -0.233,0.568 0.436,0.038 0.829,0.115 1.18,0.229 0.772,0.251 1.34,0.676 1.711,1.24l-0.001 0.001c0.368,0.56 0.534,1.249 0.505,2.032 -0.016,0.466 -0.102,0.965 -0.255,1.489 0.245,0.146 0.534,0.321 0.826,0.498 0.778,0.472 1.579,0.957 2.429,1.411 0.182,0.098 0.364,0.174 0.543,0.23 0.51,0.159 0.986,0.146 1.388,-0.012 0.398,-0.156 0.728,-0.455 0.95,-0.87 0.068,-0.128 0.127,-0.269 0.175,-0.422 0.496,-1.589 -0.975,-2.393 -2.695,-3.333 -0.349,-0.191 -0.708,-0.387 -1.017,-0.568 -0.125,-0.072 -0.243,-0.132 -0.363,-0.192 -0.119,-0.06 -0.239,-0.12 -0.347,-0.18 -0.557,-0.31 -0.98,-0.684 -0.631,-1.312 0.001,-0.017 0.003,-0.036 0.007,-0.058 0.046,-0.246 0.182,-0.362 0.877,-0.234l0.052 0.01c0.157,0.089 1.668,0.946 1.672,0.946 0.484,0.277 0.96,0.56 1.431,0.841l0.917 0.544 0 0.001c1.334,0.794 2.806,1.67 3.849,0.039 0.894,-1.398 -0.007,-2.365 -1.379,-3.242 -0.477,-0.305 -1.027,-0.609 -1.583,-0.916 -0.327,-0.181 -0.656,-0.363 -0.987,-0.555 -0.134,-0.077 -0.291,-0.152 -0.453,-0.228 -0.697,-0.331 -1.451,-0.688 -1.405,-1.613l0.01 -0.198 0.182 -0.074c0.729,-0.295 1.617,0.281 2.329,0.743 0.142,0.093 0.277,0.18 0.397,0.251 0.36,0.215 0.713,0.415 1.063,0.615 0.448,0.254 0.893,0.507 1.35,0.787 0.141,0.086 0.322,0.202 0.507,0.32 1.407,0.897 3.16,2.014 4.257,0.321 0.924,-1.427 0.099,-2.323 -0.921,-2.983 -0.333,-0.216 -0.689,-0.41 -1.018,-0.59 -0.186,-0.102 -0.364,-0.199 -0.508,-0.282 -0.069,-0.04 -0.242,-0.134 -0.467,-0.256l0 -0.001c-1.225,-0.665 -3.975,-2.158 -4.068,-2.92 -0.04,-0.326 0.148,-0.543 0.642,-0.603 0.623,-0.076 1.749,0.666 2.532,1.181 0.207,0.137 0.387,0.255 0.54,0.345 0.112,0.065 0.301,0.182 0.511,0.313 0.809,0.501 1.984,1.23 2.617,1.245l0.091 0c0.499,-0.016 0.971,-0.266 1.323,-0.642 0.356,-0.381 0.588,-0.889 0.601,-1.415 0.001,-0.036 0,-0.072 -0.001,-0.109 -0.033,-1.051 -0.96,-1.569 -1.932,-2.113l-0.271 -0.152c-2.513,-1.427 -4.966,-2.856 -7.422,-4.286 -1.755,-1.022 -3.512,-2.045 -5.13,-2.976l-0.189 -0.109c-1.017,-0.589 -1.904,-1.103 -3.349,-0.732 -0.544,0.14 -1.393,0.42 -2.089,0.772 -0.46,0.233 -0.841,0.489 -0.985,0.738 -0.336,0.579 -0.602,1.139 -0.851,1.664 -0.82,1.731 -1.476,3.114 -3.823,3.813 -2.086,0.621 -3.07,-0.087 -3.491,-1.5 -0.397,-1.333 -0.233,-3.302 -0.064,-5.325 0.049,-0.591 0.099,-1.187 0.133,-1.733 0.073,-1.164 0.796,-1.786 1.661,-2.529 0.495,-0.425 1.04,-0.894 1.516,-1.533l-6.678 -2.37c-0.643,0.927 -3.315,5.608 -5.3,9.087 -0.951,1.667 -1.747,3.062 -2.083,3.629l-0.098 0.164c-0.226,0.378 -0.323,0.54 -0.296,0.631 0.031,0.104 0.17,0.265 0.413,0.548 0.183,0.212 0.419,0.487 0.722,0.873l2.741 3.441c0.153,0.189 0.252,0.322 0.335,0.433 0.144,0.194 0.235,0.314 0.375,0.419z"/>
  <path class="fil0" d="M54.684 20.327c-0.411,-0.9 -1.935,-3.505 -2.931,-5.207 -0.349,-0.596 -0.632,-1.081 -0.794,-1.367 -0.493,-0.874 -1.031,-1.773 -1.572,-2.676 -0.784,-1.31 -1.575,-2.632 -2.295,-3.997 -0.53,0.022 -1.1,0.153 -1.772,0.308 -1.707,0.393 -4.047,0.931 -8.204,0.3 -0.606,-0.092 -1.236,-0.195 -1.807,-0.288 -4.806,-0.783 -5.152,-0.84 -10.031,3.912 -0.435,0.424 -0.775,0.743 -1.045,0.996 -0.49,0.46 -0.745,0.699 -0.859,0.891 -0.107,0.179 -0.109,0.385 -0.112,0.814 -0.001,0.18 -0.003,0.395 -0.011,0.648 -0.014,0.389 -0.051,0.913 -0.093,1.499 -0.104,1.439 -0.235,3.259 -0.093,3.967 0.039,0.2 0.115,0.343 0.215,0.439 0.108,0.104 0.254,0.162 0.424,0.186 0.193,0.028 0.416,0.012 0.65,-0.035 0.822,-0.164 1.714,-0.681 2.027,-1.007 0.674,-0.704 1.154,-1.721 1.652,-2.775 0.114,-0.242 0.229,-0.487 0.372,-0.777l0.026 -0.055c0.244,-0.498 0.359,-0.731 0.558,-0.92 0.178,-0.168 0.378,-0.26 0.754,-0.432l0.272 -0.126 0.001 0.001c1.446,-0.675 2.5,-1.107 3.539,-1.18 1.058,-0.073 2.067,0.223 3.398,1.012l10.834 6.284c0.244,0.144 0.577,0.344 0.874,0.521 1.273,0.762 1.774,1.063 2.129,1.039 0.213,-0.015 0.45,-0.165 0.841,-0.413 0.571,-0.362 1.435,-0.911 3.053,-1.562z"/>
  <path class="fil0" d="M10.174 0.137c-0.823,0.334 -2.531,3.513 -3.451,5.224 -0.175,0.326 -0.323,0.601 -0.428,0.788l-5.64 9.738c-1.206,2.148 -0.691,2.767 1.087,3.766 0.281,0.158 0.579,0.318 0.901,0.491 0.396,0.213 0.829,0.446 1.285,0.702 0.181,0.102 0.378,0.227 0.592,0.363 0.845,0.536 1.976,1.254 2.812,0.966 0.741,-0.255 2.354,-3.194 3.308,-4.933 0.239,-0.434 0.438,-0.797 0.576,-1.031l5.632 -9.736c1.409,-2.534 0.752,-2.897 -1.817,-4.317 -0.4,-0.221 -0.845,-0.467 -1.391,-0.782 -0.148,-0.085 -0.299,-0.179 -0.462,-0.279 -0.884,-0.545 -2.13,-1.314 -3.004,-0.96z"/>
  <path class="fil0" d="M53.964 0.165c-0.715,0.309 -2.717,1.35 -4.274,2.344 -0.965,0.617 -1.744,1.198 -1.881,1.526 -0.356,0.858 0.287,1.875 0.798,2.683 0.129,0.203 0.249,0.394 0.344,0.563l-0.001 0.001 7.539 13.065c1.219,2.192 1.985,2.209 3.343,1.453 0.285,-0.158 0.625,-0.367 1.002,-0.599l0.002 0c0.439,-0.27 0.929,-0.571 1.474,-0.877 3.658,-2.057 3.633,-2.102 1.901,-5.196l-0.076 -0.137c-0.355,-0.635 -0.666,-1.175 -0.974,-1.71 -0.321,-0.558 -0.639,-1.109 -0.922,-1.615l-5.642 -9.735c-0.071,-0.125 -0.13,-0.235 -0.191,-0.348 -0.485,-0.901 -1.08,-2.006 -2.442,-1.418z"/>
  <path class="fil0" d="M24.583 25.82c-0.863,0.238 -1.418,1.106 -1.943,1.925 -0.125,0.195 -0.249,0.388 -0.385,0.585 -0.387,0.559 -0.756,1.068 -1.125,1.576 -0.348,0.479 -0.695,0.958 -0.992,1.383 -0.087,0.124 -0.184,0.256 -0.294,0.403 -0.564,0.76 -1.462,1.967 -1.42,2.752 0.006,0.119 0.026,0.237 0.057,0.352 0.119,0.432 0.406,0.831 0.786,1.117 0.378,0.285 0.846,0.454 1.33,0.428 0.129,-0.007 0.258,-0.027 0.387,-0.062 0.846,-0.233 2.499,-2.713 3.636,-4.418 0.282,-0.423 0.533,-0.8 0.726,-1.074 0.097,-0.137 0.225,-0.303 0.366,-0.487 0.57,-0.741 1.38,-1.794 1.355,-2.643 -0.004,-0.129 -0.024,-0.258 -0.058,-0.383 -0.117,-0.422 -0.394,-0.807 -0.758,-1.085 -0.362,-0.276 -0.809,-0.443 -1.265,-0.43 -0.133,0.004 -0.268,0.024 -0.403,0.061z"/>
  <path class="fil0" d="M28.515 29.779c-0.926,0.232 -2.044,1.931 -3.036,3.438 -0.354,0.538 -0.692,1.053 -1.003,1.472 -0.071,0.096 -0.156,0.204 -0.246,0.319 -0.543,0.694 -1.288,1.647 -1.026,2.686l0.019 0.071c0.126,0.395 0.464,0.798 0.902,1.073 0.432,0.271 0.958,0.411 1.467,0.283l0.095 -0.026c0.935,-0.298 2.537,-2.73 3.5,-4.19 0.196,-0.298 0.367,-0.557 0.49,-0.736 0.099,-0.142 0.2,-0.276 0.306,-0.417 0.503,-0.666 1.133,-1.501 0.925,-2.452l-0.01 -0.04c-0.104,-0.416 -0.409,-0.851 -0.832,-1.152 -0.417,-0.299 -0.947,-0.462 -1.501,-0.341l-0.05 0.012z"/>
  <path class="fil0" d="M18.897 24.254c-0.839,0.277 -2.006,2.047 -2.851,3.327 -0.234,0.356 -0.445,0.676 -0.611,0.908 -0.485,0.679 -0.671,1.265 -0.656,1.753 0.013,0.398 0.162,0.735 0.389,1.004 0.236,0.278 0.554,0.487 0.893,0.617 0.473,0.182 0.98,0.214 1.355,0.079 0.77,-0.279 1.984,-2.095 2.832,-3.364 0.226,-0.339 0.428,-0.64 0.596,-0.874 0.471,-0.654 0.658,-1.231 0.651,-1.718 -0.006,-0.404 -0.148,-0.749 -0.37,-1.026 -0.228,-0.284 -0.542,-0.498 -0.883,-0.631 -0.449,-0.175 -0.942,-0.209 -1.345,-0.075z"/>
  <path class="fil0" d="M31.429 35.193c-0.428,0.109 -0.909,0.521 -1.351,1.018 -0.724,0.813 -1.318,1.822 -1.458,2.184 -0.15,0.387 -0.167,0.766 -0.087,1.112 0.076,0.325 0.24,0.623 0.462,0.87 0.225,0.249 0.509,0.446 0.823,0.568 0.361,0.14 0.764,0.181 1.163,0.087 0.364,-0.085 0.836,-0.504 1.291,-1.025 0.648,-0.742 1.234,-1.669 1.455,-2.183 0.166,-0.389 0.183,-0.781 0.091,-1.14 -0.078,-0.305 -0.235,-0.589 -0.445,-0.827 -0.212,-0.241 -0.476,-0.436 -0.768,-0.561 -0.365,-0.156 -0.774,-0.206 -1.176,-0.103z"/>
 </g>
</svg>
