<?xml version="1.0" encoding="UTF-8"?>
<!DOCTYPE svg PUBLIC "-//W3C//DTD SVG 1.1//EN" "http://www.w3.org/Graphics/SVG/1.1/DTD/svg11.dtd">
<!-- Creator: CorelDRAW 2019 (64-Bit) -->
<svg xmlns="http://www.w3.org/2000/svg" xml:space="preserve" width="137px" height="136px" version="1.1" style="shape-rendering:geometricPrecision; text-rendering:geometricPrecision; image-rendering:optimizeQuality; fill-rule:evenodd; clip-rule:evenodd"
viewBox="0 0 4.678 4.652"
 xmlns:xlink="http://www.w3.org/1999/xlink"
 xmlns:xodm="http://www.corel.com/coreldraw/odm/2003">
 <defs>
  <style type="text/css">
   <![CDATA[
    .fil0 {fill:black}
   ]]>
  </style>
 </defs>
 <g id="Слой_x0020_1">
  <metadata id="CorelCorpID_0Corel-Layer"/>
  <path class="fil0" d="M1.014 2.417l0.026 0 0 -0.026 0.026 0 0 -0.026 0.026 0 0 -0.026 0.026 0 0 -0.026 0.026 0 0 -0.026 0.026 0 0 -0.026 0.026 0 0 -0.026 0.026 0 0 -0.026 0.026 0 0 -0.026 0.025 0 0 -0.026 0.026 0 0 -0.026 0.026 0 0 -0.026 0.026 0 0 -0.026 0.026 0 0 -0.026 0.026 0 0 -0.026 0.026 0 0 -0.026 0.026 0 0 -0.026 0.026 0 0 -0.026 0.026 0 0 -0.026 0.026 0 0 -0.026 0.026 0 0 -0.026 0.026 0 0 -0.026 0.026 0 0 -0.026 0.026 0 0 -0.026 0.026 0 0 -0.026 0.026 0 0 -0.026 0.026 0 0 -0.026 0.026 0 0 -0.026 0.026 0 0 -0.026 0.026 0 0 -0.026 0.026 0 0 -0.026 0.026 0 0 -0.026 0.026 0 0 -0.026 0.026 0 0 -0.026 0.026 0 0 -0.026 0.026 0 0 -0.026 0.026 0 0 -0.026 0.026 0 0 -0.026 0.026 0 0 -0.026 0.026 0 0 -0.026 0.026 0 0 -0.026 0.026 0 0 -0.026 0.026 0 0 -0.026 0.026 0 0 -0.026 0.026 0 0 -0.026 0.026 0 0 -0.025 0.026 0 0 -0.026 0.026 0 0 -0.026 0.026 0 0 -0.026 0.026 0 0 -0.026 0.026 0 0 0.026 0.026 0 0 0.026 0.026 0 0 0.026 0.026 0 0 0.026 0.026 0 0 0.025 0.026 0 0 0.026 0.026 0 0 0.052 0.052 0 0 0.026 0.026 0 0 0.026 0.026 0 0 0.052 0.026 0 0 0.026 0.026 0 0 0.026 0.026 0 0 0.026 0.026 0 0 0.026 0.026 0 0 0.026 0.026 0 0 0.026 0.026 0 0 0.026 0.026 0 0 0.026 0.026 0 0 0.026 0.026 0 0 0.026 0.026 0 0 0.026 0.026 0 0 0.026 0.026 0 0 0.026 0.026 0 0 0.026 0.026 0 0 0.026 0.026 0 0 0.026 0.026 0 0 0.026 0.026 0 0 0.026 0.026 0 0 0.026 0.026 0 0 0.052 0.026 0 0 0.026 0.052 0 0 0.052 0.026 0 0 0.026 0.026 0 0 0.026 0.026 0 0 0.026 0.026 0 0 0.026 0.026 0 0 0.026 0.026 0 0 0.026 0.026 0 0 0.026 0.026 0 0 0.026 0.026 0 0 0.026 0.026 0 0 0.026 0.026 0 0 0.026 0.026 0 0 0.026 0.026 0 0 0.026 0.026 0 0 0.026 0.026 0 0 0.026 0.026 0 0 0.026 -0.442 0 0 1.04 -0.572 0 0 -0.702 -0.026 0 0 -0.026 -0.026 0 0 -0.026 -0.494 0 0 0.026 -0.052 0 0 0.728 -0.572 0 0 -1.04 -0.415 0 0 -0.052zm1.013 -2.391l-0.182 0 0 0.026 -0.104 0 0 0.026 -0.104 0 0 0.026 -0.078 0 0 0.026 -0.052 0 0 0.026 -0.078 0 0 0.026 -0.078 0 0 0.026 -0.052 0 0 0.026 -0.026 0 0 0.026 -0.051 0 0 0.026 -0.052 0 0 0.026 -0.052 0 0 0.026 -0.026 0 0 0.026 -0.052 0 0 0.026 -0.026 0 0 0.026 -0.052 0 0 0.026 -0.026 0 0 0.026 -0.026 0 0 0.026 -0.026 0 0 0.026 -0.052 0 0 0.026 -0.026 0 0 0.026 -0.026 0 0 0.026 -0.026 0 0 0.026 -0.026 0 0 0.026 -0.026 0 0 0.026 -0.026 0 0 0.026 -0.026 0 0 0.026 -0.026 0 0 0.026 -0.026 0 0 0.026 -0.026 0 0 0.026 -0.026 0 0 0.026 -0.026 0 0 0.052 -0.026 0 0 0.026 -0.026 0 0 0.026 -0.026 0 0 0.052 -0.026 0 0 0.026 -0.026 0 0 0.052 -0.026 0 0 0.026 -0.026 0 0 0.052 -0.026 0 0 0.026 -0.026 0 0 0.052 -0.026 0 0 0.051 -0.026 0 0 0.078 -0.026 0 0 0.078 -0.052 0 0 0.104 -0.026 0 0 0.052 -0.026 0 0 0.13 -0.026 0 0 0.052 -0.026 0 0 0.156 -0.026 0 0 0.13 -0.026 0 0 0.572 0.026 0 0 0.13 0.026 0 0 0.13 0.026 0 0 0.078 0.026 0 0 0.078 0.026 0 0 0.104 0.026 0 0 0.078 0.026 0 0 0.078 0.052 0 0 0.078 0.026 0 0 0.052 0.026 0 0 0.052 0.026 0 0 0.026 0.026 0 0 0.052 0.026 0 0 0.026 0.026 0 0 0.052 0.026 0 0 0.052 0.026 0 0 0.026 0.026 0 0 0.025 0.026 0 0 0.026 0.026 0 0 0.052 0.026 0 0 0.026 0.026 0 0 0.026 0.026 0 0 0.026 0.026 0 0 0.026 0.026 0 0 0.026 0.026 0 0 0.026 0.026 0 0 0.026 0.026 0 0 0.026 0.026 0 0 0.026 0.026 0 0 0.026 0.026 0 0 0.026 0.026 0 0 0.026 0.026 0 0 0.026 0.052 0 0 0.026 0.026 0 0 0.026 0.026 0 0 0.026 0.052 0 0 0.026 0.026 0 0 0.026 0.052 0 0 0.026 0.026 0 0 0.026 0.052 0 0 0.026 0.026 0 0 0.026 0.077 0 0 0.026 0.052 0 0 0.026 0.052 0 0 0.026 0.052 0 0 0.026 0.078 0 0 0.026 0.078 0 0 0.026 0.078 0 0 0.026 0.078 0 0 0.026 0.156 0 0 0.052 0.65 0 0 -0.026 0.234 0 0 -0.026 0.13 0 0 -0.026 0.104 0 0 -0.026 0.078 0 0 -0.026 0.078 0 0 -0.026 0.052 0 0 -0.026 0.078 0 0 -0.026 0.052 0 0 -0.026 0.052 0 0 -0.026 0.026 0 0 -0.026 0.078 0 0 -0.026 0.026 0 0 -0.026 0.052 0 0 -0.026 0.052 0 0 -0.026 0.026 0 0 -0.026 0.026 0 0 -0.026 0.052 0 0 -0.026 0.025 0 0 -0.026 0.026 0 0 -0.026 0.052 0 0 -0.026 0.026 0 0 -0.026 0.026 0 0 -0.026 0.026 0 0 -0.026 0.026 0 0 -0.026 0.026 0 0 -0.026 0.026 0 0 -0.026 0.026 0 0 -0.026 0.026 0 0 -0.026 0.026 0 0 -0.026 0.026 0 0 -0.026 0.026 0 0 -0.026 0.026 0 0 -0.052 0.026 0 0 -0.026 0.026 0 0 -0.025 0.026 0 0 -0.026 0.026 0 0 -0.052 0.026 0 0 -0.052 0.026 0 0 -0.026 0.026 0 0 -0.052 0.026 0 0 -0.026 0.026 0 0 -0.052 0.026 0 0 -0.052 0.026 0 0 -0.078 0.026 0 0 -0.078 0.026 0 0 -0.026 0.026 0 0 -0.052 0.026 0 0 -0.104 0.026 0 0 -0.078 0.026 0 0 -0.078 0.026 0 0 -0.156 0.026 0 0 -0.208 0.026 0 0 -0.468 -0.026 0 0 -0.104 -0.026 0 0 -0.182 -0.026 0 0 -0.104 -0.026 0 0 -0.078 -0.026 0 0 -0.078 -0.026 0 0 -0.078 -0.052 0 0 -0.104 -0.026 0 0 -0.052 -0.026 0 0 -0.051 -0.026 0 0 -0.052 -0.026 0 0 -0.026 -0.026 0 0 -0.052 -0.026 0 0 -0.026 -0.026 0 0 -0.052 -0.026 0 0 -0.026 -0.026 0 0 -0.052 -0.026 0 0 -0.026 -0.026 0 0 -0.026 -0.026 0 0 -0.052 -0.026 0 0 -0.026 -0.026 0 0 -0.026 -0.026 0 0 -0.026 -0.026 0 0 -0.026 -0.026 0 0 -0.026 -0.026 0 0 -0.026 -0.026 0 0 -0.026 -0.026 0 0 -0.026 -0.026 0 0 -0.026 -0.026 0 0 -0.026 -0.026 0 0 -0.026 -0.026 0 0 -0.026 -0.052 0 0 -0.026 -0.026 0 0 -0.026 -0.025 0 0 -0.026 -0.026 0 0 -0.026 -0.052 0 0 -0.026 -0.026 0 0 -0.026 -0.052 0 0 -0.026 -0.026 0 0 -0.026 -0.052 0 0 -0.026 -0.052 0 0 -0.026 -0.052 0 0 -0.026 -0.026 0 0 -0.026 -0.052 0 0 -0.026 -0.078 0 0 -0.026 -0.078 0 0 -0.026 -0.104 0 0 -0.026 -0.026 0 0 -0.026 -0.13 0 0 -0.026 -0.052 0 0 -0.026 -0.208 0 0 -0.026 -0.624 0 0 0.026z"/>
 </g>
</svg>
