<?xml version="1.0" encoding="UTF-8"?>
<!DOCTYPE svg PUBLIC "-//W3C//DTD SVG 1.1//EN" "http://www.w3.org/Graphics/SVG/1.1/DTD/svg11.dtd">
<!-- Creator: CorelDRAW 2019 (64-Bit) -->
<svg xmlns="http://www.w3.org/2000/svg" xml:space="preserve" width="179px" height="142px" version="1.1" style="shape-rendering:geometricPrecision; text-rendering:geometricPrecision; image-rendering:optimizeQuality; fill-rule:evenodd; clip-rule:evenodd"
viewBox="0 0 28.358 22.534"
 xmlns:xlink="http://www.w3.org/1999/xlink"
 xmlns:xodm="http://www.corel.com/coreldraw/odm/2003">
 <defs>
  <style type="text/css">
   <![CDATA[
    .fil1 {fill:black}
    .fil0 {fill:#F7F7F7}
   ]]>
  </style>
 </defs>
 <g id="Слой_x0020_1">
  <metadata id="CorelCorpID_0Corel-Layer"/>
  <path class="fil0" d="M5.593 21.343l-2.591 0 1.153 1.191c0.618,-0.205 1.164,-0.839 1.438,-1.191z"/>
  <g id="_2534832985696">
   <path class="fil1" d="M16.104 12.088c0.281,0.235 0.528,0.42 0.789,0.621l3.914 3.005c0.872,0.639 0.434,2.554 -1.241,1.312l-3.121 -2.386c-0.608,-0.478 -1.311,-1.271 -1.685,-0.669 -0.307,0.541 0.598,1.009 0.896,1.246 0.442,0.351 0.851,0.662 1.276,0.984 0.449,0.341 0.852,0.668 1.268,0.991 0.421,0.326 0.969,0.584 0.865,1.359 -0.228,1.708 -3.176,-0.898 -4.053,-1.56 -0.543,-0.409 -0.968,-0.91 -1.35,-0.683 -1.046,0.621 2.157,2.208 2.379,2.753 0.118,0.998 -0.861,0.935 -1.426,0.516 -0.223,-0.165 -1.868,-1.452 -1.927,-1.665 -0.136,-0.484 -0.008,-0.486 -0.377,-0.833 -0.224,-0.209 -0.453,-0.361 -0.796,-0.385 -1.503,-0.103 -0.336,-0.974 -1.483,-1.713 -0.275,-0.177 -0.465,-0.167 -0.834,-0.176 -0.361,-0.009 -0.343,-0.113 -0.575,-0.307 0.262,-1.377 -0.402,-2.112 -1.824,-1.902l-1.826 -2.5c-0.154,0.138 -0.405,0.657 -0.47,0.889 -0.119,0.427 1.034,1.542 1.489,2.358 -0.57,1.038 -1.507,1.624 -1.298,2.597 0.099,0.464 0.514,0.892 0.941,1.037 0.837,0.285 1.118,-0.173 1.526,-0.395 0.187,0.694 -0.42,1.128 0.372,1.819 0.246,0.215 0.537,0.36 0.958,0.319 0.539,-0.053 0.386,-0.332 0.899,-0.12 0.007,0.378 -0.213,0.53 -0.052,1.029 0.161,0.497 0.848,1.005 1.563,0.774 0.444,-0.143 0.373,-0.35 0.692,-0.492 0.349,0.669 0.137,1.334 1.003,1.608 0.701,0.221 1.233,-0.156 1.546,-0.807 0.591,0.006 1.181,0.297 1.846,0.057 0.525,-0.189 0.628,-0.625 0.977,-0.984 0.541,0.164 0.845,0.737 2.005,0.295 0.76,-0.289 0.906,-0.724 1.041,-1.657 2.11,-0.188 1.974,-0.595 2.281,-2.083 1.177,-0.08 2.149,-0.981 1.983,-2.276 -0.09,-0.704 -0.56,-1.013 -0.334,-1.72 0.288,-0.902 0.36,-0.753 0.012,-1.688 -0.229,-0.614 -2.97,-7.158 -3.285,-7.506 -0.233,-0.257 -1.34,-0.307 -1.733,-0.377 -1.405,-0.251 -2.52,-0.779 -3.452,-0.839 -1.913,-0.122 -2.66,0.902 -3.316,0.926 -1.359,0.051 -2.91,-0.091 -4.238,0.027 -0.156,0.231 -0.457,1.015 -0.49,1.341l2.617 0.001c-0.191,0.667 -0.641,0.641 -0.743,2.189 -0.058,0.884 -0.439,1.711 -0.472,2.414 -0.043,0.907 0.839,1.296 1.715,1.066 2.035,-0.533 2.161,-2.305 2.619,-3.171 0.474,-0.895 1.535,-0.763 2.062,-0.481 0.482,0.257 2.366,2.177 2.997,2.723l3.007 2.782c0.513,0.514 0.985,0.903 1.508,1.385 0.299,0.276 0.47,0.394 0.535,0.867 0.054,0.395 -0.044,0.885 -0.251,1.1 -0.822,0.851 -2.771,-1.013 -3.663,-1.692 -0.544,-0.415 -1.093,-0.855 -1.63,-1.268 -0.608,-0.467 -1.333,-1.235 -1.786,-0.949 -0.388,0.353 -0.069,0.711 0.15,0.894z"/>
   <path class="fil1" d="M2.775 11.233c0.284,-0.371 0.981,-1.977 1.201,-2.478 0.549,-1.251 3.41,-7.053 3.449,-7.484 -0.31,-0.216 -2.509,-1.255 -2.821,-1.271l-2.316 4.951c-0.294,0.594 -2.23,4.666 -2.288,5.003 0.247,0.2 2.481,1.263 2.775,1.279z"/>
   <path class="fil1" d="M25.49 11.306c0.378,-0.02 2.615,-0.999 2.868,-1.211 -0.055,-0.34 -1.777,-4.263 -2.054,-4.89l-2.066 -4.773c-0.319,0.002 -2.665,1.011 -2.893,1.222l4.145 9.652z"/>
  </g>
 </g>
</svg>
