<?xml version="1.0" encoding="UTF-8"?>
<!DOCTYPE svg PUBLIC "-//W3C//DTD SVG 1.1//EN" "http://www.w3.org/Graphics/SVG/1.1/DTD/svg11.dtd">
<!-- Creator: CorelDRAW 2019 (64-Bit) -->
<svg xmlns="http://www.w3.org/2000/svg" xml:space="preserve" width="113px" height="136px" version="1.1" style="shape-rendering:geometricPrecision; text-rendering:geometricPrecision; image-rendering:optimizeQuality; fill-rule:evenodd; clip-rule:evenodd"
viewBox="0 0 3.559 4.264"
 xmlns:xlink="http://www.w3.org/1999/xlink"
 xmlns:xodm="http://www.corel.com/coreldraw/odm/2003">
 <defs>
  <style type="text/css">
   <![CDATA[
    .fil0 {fill:black}
   ]]>
  </style>
 </defs>
 <g id="Слой_x0020_1">
  <metadata id="CorelCorpID_0Corel-Layer"/>
  <g id="_2535032658656">
   <path class="fil0" d="M0 3.423c0,0.288 0.013,0.473 0.252,0.681 0.044,0.038 0.112,0.077 0.167,0.099 0.081,0.033 0.179,0.061 0.289,0.061l2.14 0c0.104,0 0.211,-0.025 0.283,-0.058 0.088,-0.041 0.08,-0.03 0.165,-0.094 0.019,-0.015 0.033,-0.024 0.05,-0.042 0.034,-0.034 0.052,-0.052 0.082,-0.093l0.064 -0.11c0.117,-0.237 0.055,-0.739 0.001,-0.972 -0.034,-0.145 -0.064,-0.238 -0.131,-0.36 -0.031,-0.057 -0.03,-0.07 -0.076,-0.133 -0.165,-0.227 -0.382,-0.345 -0.671,-0.345 -0.191,0 -0.573,0.571 -1.308,0.2 -0.121,-0.061 -0.251,-0.2 -0.391,-0.2 -0.22,0 -0.469,0.118 -0.584,0.265 -0.013,0.016 -0.016,0.021 -0.03,0.037 -0.013,0.015 -0.018,0.027 -0.03,0.044 -0.064,0.088 -0.106,0.187 -0.147,0.287 -0.015,0.035 -0.022,0.068 -0.034,0.107 -0.042,0.136 -0.078,0.343 -0.082,0.484 -0.002,0.044 -0.009,0.041 -0.009,0.142z"/>
   <path class="fil0" d="M0.725 0.974c0,0.222 0.027,0.395 0.143,0.582l0.104 0.145c0.021,0.023 0.041,0.04 0.063,0.062 0.294,0.295 0.722,0.375 1.135,0.207 0.033,-0.013 0.053,-0.026 0.082,-0.043 0.084,-0.051 0.154,-0.098 0.223,-0.168 0.081,-0.081 0.163,-0.192 0.212,-0.296 0.099,-0.209 0.128,-0.532 0.044,-0.763 -0.086,-0.233 -0.23,-0.422 -0.446,-0.553 -0.055,-0.034 -0.106,-0.063 -0.167,-0.084 -0.109,-0.037 -0.224,-0.058 -0.338,-0.063l-0.088 0c-0.191,0.008 -0.377,0.066 -0.532,0.185 -0.144,0.111 -0.255,0.225 -0.338,0.395 -0.046,0.093 -0.097,0.26 -0.097,0.394z"/>
  </g>
 </g>
</svg>
